<?xml version="1.0" encoding="UTF-8" standalone="no"?>
<!-- Created with Inkscape (http://www.inkscape.org/) -->

<svg
   width="210mm"
   height="297mm"
   viewBox="0 0 210 297"
   version="1.1"
   id="svg1251"
   sodipodi:docname="background.svg"
   inkscape:version="1.1.1 (3bf5ae0d25, 2021-09-20)"
   xmlns:inkscape="http://www.inkscape.org/namespaces/inkscape"
   xmlns:sodipodi="http://sodipodi.sourceforge.net/DTD/sodipodi-0.dtd"
   xmlns="http://www.w3.org/2000/svg"
   xmlns:svg="http://www.w3.org/2000/svg">
  <sodipodi:namedview
     id="namedview1253"
     pagecolor="#505050"
     bordercolor="#eeeeee"
     borderopacity="1"
     inkscape:pageshadow="0"
     inkscape:pageopacity="0"
     inkscape:pagecheckerboard="0"
     inkscape:document-units="mm"
     showgrid="false"
     showguides="true"
     inkscape:guide-bbox="true"
     inkscape:zoom="0.66368547"
     inkscape:cx="310.38799"
     inkscape:cy="630.56978"
     inkscape:window-width="1920"
     inkscape:window-height="1009"
     inkscape:window-x="-8"
     inkscape:window-y="-8"
     inkscape:window-maximized="1"
     inkscape:current-layer="layer1" />
  <defs
     id="defs1248" />
  <g
     inkscape:label="Warstwa 1"
     inkscape:groupmode="layer"
     id="layer1">
    <rect
       style="opacity:1;fill:#181818;fill-opacity:1;stroke:#464646;stroke-width:0.422909;stroke-linecap:round;stroke-linejoin:round;stroke-miterlimit:3.5;stroke-opacity:0;paint-order:markers stroke fill"
       id="rect1334"
       width="1.4689307"
       height="1.5121346"
       x="159.80141"
       y="73.550789"
       rx="0.076908782"
       ry="0.076908782" />
    <rect
       style="opacity:1;fill:#181818;fill-opacity:1;stroke:#464646;stroke-width:0.422909;stroke-linecap:round;stroke-linejoin:round;stroke-miterlimit:3.5;stroke-opacity:0;paint-order:markers stroke fill"
       id="rect3633"
       width="1.4689307"
       height="1.5121346"
       x="165.49852"
       y="79.969978"
       rx="0.076908782"
       ry="0.076908782" />
    <rect
       style="fill:#181818;fill-opacity:1;stroke:#464646;stroke-width:0.422909;stroke-linecap:round;stroke-linejoin:round;stroke-miterlimit:3.5;stroke-opacity:0;paint-order:markers stroke fill"
       id="rect1334-4"
       width="1.4689307"
       height="1.5121346"
       x="159.79825"
       y="79.973457"
       rx="0.076908782"
       ry="0.076908782" />
    <rect
       style="fill:#181818;fill-opacity:1;stroke:#464646;stroke-width:0.422909;stroke-linecap:round;stroke-linejoin:round;stroke-miterlimit:3.5;stroke-opacity:0;paint-order:markers stroke fill"
       id="rect3633-2"
       width="1.4689307"
       height="1.5121346"
       x="165.49852"
       y="73.550789"
       rx="0.076908782"
       ry="0.076908782" />
    <rect
       style="fill:#181818;fill-opacity:1;stroke:#464646;stroke-width:0.422909;stroke-linecap:round;stroke-linejoin:round;stroke-miterlimit:3.5;stroke-opacity:0;paint-order:markers stroke fill"
       id="rect1334-1"
       width="1.4689307"
       height="1.5121346"
       x="159.8629"
       y="85.556602"
       rx="0.076908782"
       ry="0.076908782" />
    <rect
       style="fill:#181818;fill-opacity:1;stroke:#464646;stroke-width:0.422909;stroke-linecap:round;stroke-linejoin:round;stroke-miterlimit:3.5;stroke-opacity:0;paint-order:markers stroke fill"
       id="rect3633-3"
       width="1.4689307"
       height="1.5121346"
       x="165.56001"
       y="91.975807"
       rx="0.076908782"
       ry="0.076908782" />
    <rect
       style="fill:#181818;fill-opacity:1;stroke:#464646;stroke-width:0.422909;stroke-linecap:round;stroke-linejoin:round;stroke-miterlimit:3.5;stroke-opacity:0;paint-order:markers stroke fill"
       id="rect1334-4-6"
       width="1.4689307"
       height="1.5121346"
       x="159.85974"
       y="91.979271"
       rx="0.076908782"
       ry="0.076908782" />
    <rect
       style="fill:#181818;fill-opacity:1;stroke:#464646;stroke-width:0.422909;stroke-linecap:round;stroke-linejoin:round;stroke-miterlimit:3.5;stroke-opacity:0;paint-order:markers stroke fill"
       id="rect3633-2-7"
       width="1.4689307"
       height="1.5121346"
       x="165.56001"
       y="85.556602"
       rx="0.076908782"
       ry="0.076908782" />
    <rect
       style="fill:#181818;fill-opacity:1;stroke:#464646;stroke-width:0.422909;stroke-linecap:round;stroke-linejoin:round;stroke-miterlimit:3.5;stroke-opacity:0;paint-order:markers stroke fill"
       id="rect1334-5"
       width="1.4689307"
       height="1.5121346"
       x="148.47617"
       y="73.513054"
       rx="0.076908782"
       ry="0.076908782" />
    <rect
       style="fill:#181818;fill-opacity:1;stroke:#464646;stroke-width:1.39224;stroke-linecap:round;stroke-linejoin:round;stroke-miterlimit:3.5;stroke-opacity:0;paint-order:markers stroke fill"
       id="rect1334-5-7"
       width="4.8848372"
       height="4.928041"
       x="185.51807"
       y="121.63168"
       rx="1.4985948"
       ry="1.3271933" />
    <rect
       style="fill:#181818;fill-opacity:1;stroke:#464646;stroke-width:1.39224;stroke-linecap:round;stroke-linejoin:round;stroke-miterlimit:3.5;stroke-opacity:0;paint-order:markers stroke fill"
       id="rect1334-5-7-9"
       width="4.8848372"
       height="4.928041"
       x="19.882414"
       y="14.678261"
       rx="1.4985948"
       ry="1.3271933" />
    <rect
       style="fill:#181818;fill-opacity:1;stroke:#464646;stroke-width:1.39224;stroke-linecap:round;stroke-linejoin:round;stroke-miterlimit:3.5;stroke-opacity:0;paint-order:markers stroke fill"
       id="rect1334-5-7-4"
       width="4.8848372"
       height="4.928041"
       x="23.470335"
       y="267.42728"
       rx="1.4985948"
       ry="1.3271933" />
    <rect
       style="fill:#181818;fill-opacity:1;stroke:#464646;stroke-width:1.39224;stroke-linecap:round;stroke-linejoin:round;stroke-miterlimit:3.5;stroke-opacity:0;paint-order:markers stroke fill"
       id="rect1334-5-7-4-7"
       width="4.8848372"
       height="4.928041"
       x="186.92"
       y="235.9333"
       rx="1.4985948"
       ry="1.3271933" />
    <rect
       style="fill:#181818;fill-opacity:1;stroke:#464646;stroke-width:0.751186;stroke-linecap:round;stroke-linejoin:round;stroke-miterlimit:3.5;stroke-opacity:0;paint-order:markers stroke fill"
       id="rect1334-5-7-4-7-4"
       width="2.635623"
       height="2.6589336"
       x="32.318928"
       y="85.31881"
       rx="0.80856961"
       ry="0.71608961" />
    <rect
       style="fill:#181818;fill-opacity:1;stroke:#464646;stroke-width:0.422909;stroke-linecap:round;stroke-linejoin:round;stroke-miterlimit:3.5;stroke-opacity:0;paint-order:markers stroke fill"
       id="rect3633-6"
       width="1.4689307"
       height="1.5121346"
       x="154.17328"
       y="79.932259"
       rx="0.076908782"
       ry="0.076908782" />
    <rect
       style="fill:#181818;fill-opacity:1;stroke:#464646;stroke-width:0.422909;stroke-linecap:round;stroke-linejoin:round;stroke-miterlimit:3.5;stroke-opacity:0;paint-order:markers stroke fill"
       id="rect1334-4-2"
       width="1.4689307"
       height="1.5121346"
       x="148.47301"
       y="79.935722"
       rx="0.076908782"
       ry="0.076908782" />
    <rect
       style="fill:#181818;fill-opacity:1;stroke:#464646;stroke-width:0.422909;stroke-linecap:round;stroke-linejoin:round;stroke-miterlimit:3.5;stroke-opacity:0;paint-order:markers stroke fill"
       id="rect3633-2-2"
       width="1.4689307"
       height="1.5121346"
       x="154.17328"
       y="73.513054"
       rx="0.076908782"
       ry="0.076908782" />
    <rect
       style="fill:#181818;fill-opacity:1;stroke:#464646;stroke-width:0.422909;stroke-linecap:round;stroke-linejoin:round;stroke-miterlimit:3.5;stroke-opacity:0;paint-order:markers stroke fill"
       id="rect1334-1-3"
       width="1.4689307"
       height="1.5121346"
       x="148.53767"
       y="85.518806"
       rx="0.076908782"
       ry="0.076908782" />
    <rect
       style="fill:#181818;fill-opacity:1;stroke:#464646;stroke-width:0.422909;stroke-linecap:round;stroke-linejoin:round;stroke-miterlimit:3.5;stroke-opacity:0;paint-order:markers stroke fill"
       id="rect3633-3-4"
       width="1.4689307"
       height="1.5121346"
       x="154.23479"
       y="91.938011"
       rx="0.076908782"
       ry="0.076908782" />
    <rect
       style="fill:#181818;fill-opacity:1;stroke:#464646;stroke-width:0.422909;stroke-linecap:round;stroke-linejoin:round;stroke-miterlimit:3.5;stroke-opacity:0;paint-order:markers stroke fill"
       id="rect1334-4-6-0"
       width="1.4689307"
       height="1.5121346"
       x="148.53452"
       y="91.941475"
       rx="0.076908782"
       ry="0.076908782" />
    <rect
       style="fill:#181818;fill-opacity:1;stroke:#464646;stroke-width:0.422909;stroke-linecap:round;stroke-linejoin:round;stroke-miterlimit:3.5;stroke-opacity:0;paint-order:markers stroke fill"
       id="rect3633-2-7-2"
       width="1.4689307"
       height="1.5121346"
       x="154.23479"
       y="85.518806"
       rx="0.076908782"
       ry="0.076908782" />
    <rect
       style="fill:#181818;fill-opacity:1;stroke:#464646;stroke-width:0.422909;stroke-linecap:round;stroke-linejoin:round;stroke-miterlimit:3.5;stroke-opacity:0;paint-order:markers stroke fill"
       id="rect1334-3"
       width="1.4689307"
       height="1.5121346"
       x="88.339485"
       y="180.71913"
       rx="0.076908782"
       ry="0.076908782" />
    <rect
       style="fill:#181818;fill-opacity:1;stroke:#464646;stroke-width:0.422909;stroke-linecap:round;stroke-linejoin:round;stroke-miterlimit:3.5;stroke-opacity:0;paint-order:markers stroke fill"
       id="rect1334-4-5"
       width="1.4689307"
       height="1.5121346"
       x="88.336327"
       y="187.1418"
       rx="0.076908782"
       ry="0.076908782" />
    <rect
       style="fill:#181818;fill-opacity:1;stroke:#464646;stroke-width:0.422909;stroke-linecap:round;stroke-linejoin:round;stroke-miterlimit:3.5;stroke-opacity:0;paint-order:markers stroke fill"
       id="rect1334-1-2"
       width="1.4689307"
       height="1.5121346"
       x="88.400978"
       y="192.72495"
       rx="0.076908782"
       ry="0.076908782" />
    <rect
       style="fill:#181818;fill-opacity:1;stroke:#464646;stroke-width:0.422909;stroke-linecap:round;stroke-linejoin:round;stroke-miterlimit:3.5;stroke-opacity:0;paint-order:markers stroke fill"
       id="rect1334-5-5"
       width="1.4689307"
       height="1.5121346"
       x="77.014244"
       y="180.6814"
       rx="0.076908782"
       ry="0.076908782" />
    <rect
       style="fill:#181818;fill-opacity:1;stroke:#464646;stroke-width:0.422909;stroke-linecap:round;stroke-linejoin:round;stroke-miterlimit:3.5;stroke-opacity:0;paint-order:markers stroke fill"
       id="rect3633-6-0"
       width="1.4689307"
       height="1.5121346"
       x="82.711357"
       y="187.1006"
       rx="0.076908782"
       ry="0.076908782" />
    <rect
       style="fill:#181818;fill-opacity:1;stroke:#464646;stroke-width:0.422909;stroke-linecap:round;stroke-linejoin:round;stroke-miterlimit:3.5;stroke-opacity:0;paint-order:markers stroke fill"
       id="rect1334-4-2-4"
       width="1.4689307"
       height="1.5121346"
       x="77.011086"
       y="187.10406"
       rx="0.076908782"
       ry="0.076908782" />
    <rect
       style="fill:#181818;fill-opacity:1;stroke:#464646;stroke-width:0.422909;stroke-linecap:round;stroke-linejoin:round;stroke-miterlimit:3.5;stroke-opacity:0;paint-order:markers stroke fill"
       id="rect3633-2-2-5"
       width="1.4689307"
       height="1.5121346"
       x="82.711357"
       y="180.6814"
       rx="0.076908782"
       ry="0.076908782" />
    <rect
       style="fill:#181818;fill-opacity:1;stroke:#464646;stroke-width:0.422909;stroke-linecap:round;stroke-linejoin:round;stroke-miterlimit:3.5;stroke-opacity:0;paint-order:markers stroke fill"
       id="rect1334-1-3-9"
       width="1.4689307"
       height="1.5121346"
       x="77.075752"
       y="192.68715"
       rx="0.076908782"
       ry="0.076908782" />
    <rect
       style="fill:#181818;fill-opacity:1;stroke:#464646;stroke-width:0.422909;stroke-linecap:round;stroke-linejoin:round;stroke-miterlimit:3.5;stroke-opacity:0;paint-order:markers stroke fill"
       id="rect3633-2-7-2-9"
       width="1.4689307"
       height="1.5121346"
       x="82.772865"
       y="192.68715"
       rx="0.076908782"
       ry="0.076908782" />
    <g
       id="use203-9"
       inkscape:label="use203-9"
       style="fill:#1b1b1b;fill-opacity:1;stroke:none;stroke-width:1;stroke-miterlimit:4;stroke-dasharray:none;stroke-opacity:1" />
    <path
       id="path5868"
       style="color:#000000;fill:#181818;fill-opacity:1;stroke:none;stroke-width:0.562269;stroke-miterlimit:4;stroke-dasharray:none;stroke-opacity:1"
       d="m 28.677212,31.359361 -4.716091,4.716091 v 0.96437 l 5.680463,-5.680461 z m 4.713477,0 -9.429568,9.429568 v 0.964079 L 34.354769,31.359361 Z m 4.712313,0 -14.141881,14.141881 v 0.964079 l 15.105962,-15.10596 z m 4.709699,0.0038 -18.847803,18.847803 c 0.0167,0.262001 0.115838,0.500589 0.273418,0.6895 L 43.502202,31.636555 C 43.313337,31.47906 43.074599,31.379858 42.812701,31.363138 Z m -17.911616,0.02441 c -0.455961,0.09908 -0.813001,0.456105 -0.91207,0.91207 z m 19.030856,3.568675 -16.374259,16.37426 h 0.96408 L 43.931941,35.920292 Z m 0,4.712314 -11.661945,11.661946 h 0.96408 l 10.697865,-10.6979 z m 0,4.713187 -6.94876,6.948759 h 0.964371 l 5.984389,-5.984388 z m 0,4.712314 -2.236446,2.236445 h 0.964371 l 1.272075,-1.272075 z" />
    <path
       style="color:#000000;fill:#1b1b1b;fill-opacity:1;stroke:none;stroke-width:1;stroke-miterlimit:4;stroke-dasharray:none;stroke-opacity:1"
       d="m -142.67802,-64.933983 -72.74023,72.7382811 0.85742,0.857422 72.73828,-72.7382811 z m 8.38086,0 -72.73828,72.7382811 0.85742,0.857422 72.73828,-72.7382811 z m 8.38086,0 -72.73828,72.7382811 0.85742,0.857422 72.73828,-72.7382811 z m 8.38281,0 -72.73828,72.7382811 0.85547,0.857422 72.73828,-72.7382811 z m 8.38086,0 -72.73828,72.7382811 0.85742,0.857422 72.73828,-72.7382811 z m 8.38086,0 -72.73828,72.7382811 0.85742,0.857422 72.738283,-72.7382811 z m 8.382813,0 -72.738283,72.7382811 0.85742,0.857422 72.738293,-72.7382811 z m 8.380863,0 -72.738286,72.7382811 0.85742,0.857422 72.738288,-72.7382811 z m 8.382812,0 -72.738288,72.7382811 0.85547,0.857422 72.738287,-72.7382811 z m 8.38086,0 -72.738288,72.7382811 0.85743,0.857422 72.73828,-72.7382811 z m 8.380859,0 -72.738287,72.7382811 0.85743,0.857422 72.738279,-72.7382811 z m 8.382813,0 -72.73828,72.7382811 0.85742,0.857422 72.738281,-72.7382811 z m 8.380859,0 -72.738289,72.7382811 0.85743,0.857422 72.738281,-72.7382811 z m 8.382812,0 -72.738281,72.7382811 0.85547,0.857422 72.740233,-72.7382811 z m 8.38086,0 -72.738278,72.7382811 0.85742,0.857422 72.73828,-72.7382811 z m 8.382812,0 -72.740234,72.7382811 0.857422,0.857422 72.738281,-72.7382811 z"
       id="path5868-4" />
    <path
       style="color:#000000;fill:#181818;fill-opacity:1;stroke:none;stroke-width:0.373069;stroke-miterlimit:4;stroke-dasharray:none;stroke-opacity:1"
       d="m 41.997259,212.08666 -27.514512,26.75388 0.315376,0.32434 27.513771,-26.75391 z m 3.126327,0.0439 -27.513782,26.75391 0.315376,0.32431 27.513782,-26.75388 z m 3.126349,0.0439 -27.51377,26.75388 0.315365,0.32434 27.513782,-26.75391 z m 3.127068,0.0437 -27.513782,26.7539 0.314647,0.32431 27.513794,-26.7539 z m 3.12635,0.0439 -27.51377,26.75391 0.315364,0.32431 27.51376,-26.75391 z m 3.126327,0.0439 -27.51377,26.7539 0.315365,0.32434 27.513782,-26.75391 z m 3.127068,0.0439 -27.513759,26.75391 0.315376,0.32431 27.513771,-26.75388 z m 3.12635,0.0439 -27.513771,26.75389 0.315365,0.32433 27.513782,-26.7539 z m 3.127091,0.0439 -27.513782,26.75389 0.314647,0.32433 27.51377,-26.75391 z m 3.126327,0.0439 -27.513737,26.75391 0.315331,0.32432 27.513805,-26.7539 z m 3.12635,0.0439 -27.513748,26.7539 0.315342,0.32434 27.513782,-26.75389 z m 3.127068,0.0439 -27.51376,26.75391 0.315354,0.32431 27.51377,-26.75388 z m 3.126349,0.0439 -27.513747,26.75388 0.315342,0.32434 27.513782,-26.75391 z m 3.127057,0.0439 -27.513748,26.75391 0.314613,0.32431 27.514511,-26.75388 z m 3.126361,0.0439 -27.513759,26.7539 0.315353,0.32432 27.513771,-26.75391 z m 3.127079,0.0439 -27.5145,26.75388 0.315365,0.32434 27.51376,-26.75391 z"
       id="path5868-4-1" />
    <path
       style="color:#000000;fill:#181818;fill-opacity:1;stroke:none;stroke-width:0.810061;stroke-miterlimit:4;stroke-dasharray:none;stroke-opacity:1"
       d="m 216.99943,-35.481517 57.90499,59.959544 -0.68256,0.706789 -57.90343,-59.959544 z m -6.67162,0 57.90346,59.959544 -0.68255,0.706789 -57.90345,-59.959544 z m -6.6716,0 57.90345,59.959544 -0.68255,0.706789 -57.90344,-59.959544 z m -6.67315,0 57.90345,59.959544 -0.68099,0.706789 -57.90346,-59.959544 z m -6.67161,0 57.90347,59.959544 -0.68256,0.706789 -57.90345,-59.959544 z m -6.67159,0 57.90346,59.959544 -0.68255,0.706789 -57.90347,-59.959544 z m -6.67315,0 57.90345,59.959544 -0.68254,0.706789 -57.90347,-59.959544 z m -6.67161,0 57.90346,59.959544 -0.68255,0.706789 -57.90347,-59.959544 z m -6.67315,0 57.90346,59.959544 -0.681,0.706789 -57.90347,-59.959544 z m -6.67161,0 57.90346,59.959544 -0.68254,0.706789 -57.90347,-59.959544 z m -6.67159,0 57.90346,59.959544 -0.68257,0.706789 -57.90345,-59.959544 z m -6.67317,0 57.90347,59.959544 -0.68256,0.706789 -57.90346,-59.959544 z m -6.67159,0 57.90346,59.959544 -0.68255,0.706789 -57.90347,-59.959544 z m -6.67315,0 57.90345,59.959544 -0.681,0.706789 -57.90502,-59.959544 z m -6.67161,0 57.90346,59.959544 -0.68255,0.706789 -57.90345,-59.959544 z m -6.67315,0 57.90502,59.959544 -0.68256,0.706789 -57.90346,-59.959544 z"
       id="path5868-4-5" />
    <rect
       style="fill:#1b1b1b;fill-opacity:1;stroke:none;stroke-width:11.707;stroke-linecap:round;stroke-linejoin:round;stroke-miterlimit:3.5;stroke-dasharray:none;stroke-opacity:1;paint-order:markers stroke fill"
       id="rect4924-0"
       width="35.518589"
       height="35.518589"
       x="-168.00858"
       y="50.458954"
       rx="2.1289964"
       ry="2.1289964" />
    <rect
       style="opacity:1;fill:#181818;fill-opacity:1;stroke:#242424;stroke-width:2.75459;stroke-linecap:round;stroke-linejoin:round;stroke-miterlimit:3.5;stroke-dasharray:none;stroke-opacity:1;paint-order:markers stroke fill"
       id="rect5167"
       width="10.810222"
       height="10.810222"
       x="41.590267"
       y="113.22788"
       rx="1.7036786"
       ry="1.7036786" />
    <rect
       style="opacity:1;fill:#181818;fill-opacity:1;stroke:none;stroke-width:0.113584;stroke-linecap:round;stroke-linejoin:round;stroke-miterlimit:4;stroke-dasharray:none;stroke-opacity:1;paint-order:markers stroke fill"
       id="rect7126"
       width="5.0401316"
       height="0.58092254"
       x="116.54375"
       y="3.6479113"
       rx="0"
       ry="0"
       transform="rotate(44.750219)" />
    <rect
       style="fill:#181818;fill-opacity:1;stroke:none;stroke-width:0.113584;stroke-linecap:round;stroke-linejoin:round;stroke-miterlimit:4;stroke-dasharray:none;stroke-opacity:1;paint-order:markers stroke fill"
       id="rect7126-1"
       width="5.0401316"
       height="0.58092254"
       x="0.3800523"
       y="118.80317"
       rx="0"
       ry="0"
       transform="matrix(-0.71018268,0.70401744,0.70401744,0.71018268,0,0)" />
    <rect
       style="fill:#181818;fill-opacity:1;stroke:none;stroke-width:0.113584;stroke-linecap:round;stroke-linejoin:round;stroke-miterlimit:4;stroke-dasharray:none;stroke-opacity:1;paint-order:markers stroke fill"
       id="rect7126-44"
       width="5.0401316"
       height="0.58092254"
       x="239.90323"
       y="-8.8014851"
       rx="0"
       ry="0"
       transform="rotate(44.750219)" />
    <rect
       style="fill:#181818;fill-opacity:1;stroke:none;stroke-width:0.113584;stroke-linecap:round;stroke-linejoin:round;stroke-miterlimit:4;stroke-dasharray:none;stroke-opacity:1;paint-order:markers stroke fill"
       id="rect7126-1-9"
       width="5.0401316"
       height="0.58092254"
       x="-13.144429"
       y="242.04942"
       rx="0"
       ry="0"
       transform="matrix(-0.71018268,0.70401744,0.70401744,0.71018268,0,0)" />
    <rect
       style="fill:#181818;fill-opacity:1;stroke:none;stroke-width:0.113584;stroke-linecap:round;stroke-linejoin:round;stroke-miterlimit:4;stroke-dasharray:none;stroke-opacity:1;paint-order:markers stroke fill"
       id="rect7126-1-9-9"
       width="5.0401316"
       height="0.58092254"
       x="57.526276"
       y="322.46063"
       rx="0"
       ry="0"
       transform="matrix(-0.71018268,0.70401744,0.70401744,0.71018268,0,0)" />
    <rect
       style="fill:#181818;fill-opacity:1;stroke:none;stroke-width:0.113584;stroke-linecap:round;stroke-linejoin:round;stroke-miterlimit:4;stroke-dasharray:none;stroke-opacity:1;paint-order:markers stroke fill"
       id="rect7126-1-9-9-4"
       width="5.0401316"
       height="0.58092254"
       x="55.47366"
       y="324.49542"
       rx="0"
       ry="0"
       transform="matrix(-0.71018268,0.70401744,0.70401744,0.71018268,0,0)" />
    <rect
       style="fill:#181818;fill-opacity:1;stroke:none;stroke-width:0.113584;stroke-linecap:round;stroke-linejoin:round;stroke-miterlimit:4;stroke-dasharray:none;stroke-opacity:1;paint-order:markers stroke fill"
       id="rect7126-1-9-9-3"
       width="5.0401316"
       height="0.58092254"
       x="53.209316"
       y="326.59979"
       rx="0"
       ry="0"
       transform="matrix(-0.71018268,0.70401744,0.70401744,0.71018268,0,0)" />
    <rect
       style="fill:#181818;fill-opacity:1;stroke:none;stroke-width:0.113584;stroke-linecap:round;stroke-linejoin:round;stroke-miterlimit:4;stroke-dasharray:none;stroke-opacity:1;paint-order:markers stroke fill"
       id="rect7126-1-9-9-8"
       width="5.0401316"
       height="0.58092254"
       x="-15.276925"
       y="202.02017"
       rx="0"
       ry="0"
       transform="matrix(-0.71018268,0.70401744,0.70401744,0.71018268,0,0)" />
    <rect
       style="fill:#181818;fill-opacity:1;stroke:none;stroke-width:0.113584;stroke-linecap:round;stroke-linejoin:round;stroke-miterlimit:4;stroke-dasharray:none;stroke-opacity:1;paint-order:markers stroke fill"
       id="rect7126-1-9-9-4-4"
       width="5.0401316"
       height="0.58092254"
       x="-17.329542"
       y="204.05496"
       rx="0"
       ry="0"
       transform="matrix(-0.71018268,0.70401744,0.70401744,0.71018268,0,0)" />
    <rect
       style="fill:#181818;fill-opacity:1;stroke:none;stroke-width:0.113584;stroke-linecap:round;stroke-linejoin:round;stroke-miterlimit:4;stroke-dasharray:none;stroke-opacity:1;paint-order:markers stroke fill"
       id="rect7126-1-9-9-3-7"
       width="5.0401316"
       height="0.58092254"
       x="-19.593885"
       y="206.15933"
       rx="0"
       ry="0"
       transform="matrix(-0.71018268,0.70401744,0.70401744,0.71018268,0,0)" />
    <rect
       style="fill:#181818;fill-opacity:1;stroke:none;stroke-width:0.113584;stroke-linecap:round;stroke-linejoin:round;stroke-miterlimit:4;stroke-dasharray:none;stroke-opacity:1;paint-order:markers stroke fill"
       id="rect7126-1-9-9-8-1"
       width="5.0401316"
       height="0.58092254"
       x="265.73447"
       y="20.420717"
       rx="0"
       ry="0"
       transform="rotate(44.750219)" />
    <rect
       style="fill:#181818;fill-opacity:1;stroke:none;stroke-width:0.113584;stroke-linecap:round;stroke-linejoin:round;stroke-miterlimit:4;stroke-dasharray:none;stroke-opacity:1;paint-order:markers stroke fill"
       id="rect7126-1-9-9-4-4-7"
       width="5.0401316"
       height="0.58092254"
       x="263.68185"
       y="22.455507"
       rx="0"
       ry="0"
       transform="rotate(44.750219)" />
    <rect
       style="fill:#181818;fill-opacity:1;stroke:none;stroke-width:0.113584;stroke-linecap:round;stroke-linejoin:round;stroke-miterlimit:4;stroke-dasharray:none;stroke-opacity:1;paint-order:markers stroke fill"
       id="rect7126-1-9-9-3-7-9"
       width="5.0401316"
       height="0.58092254"
       x="261.41751"
       y="24.559877"
       rx="0"
       ry="0"
       transform="rotate(44.750219)" />
    <rect
       style="fill:#181818;fill-opacity:1;stroke:none;stroke-width:0.113584;stroke-linecap:round;stroke-linejoin:round;stroke-miterlimit:4;stroke-dasharray:none;stroke-opacity:1;paint-order:markers stroke fill"
       id="rect7126-4"
       width="5.0401316"
       height="0.58092254"
       x="119.2411"
       y="-84.873871"
       rx="0"
       ry="0"
       transform="rotate(44.750219)" />
    <rect
       style="fill:#181818;fill-opacity:1;stroke:none;stroke-width:0.113584;stroke-linecap:round;stroke-linejoin:round;stroke-miterlimit:4;stroke-dasharray:none;stroke-opacity:1;paint-order:markers stroke fill"
       id="rect7126-1-5"
       width="5.0401316"
       height="0.58092254"
       x="-88.16188"
       y="120.72861"
       rx="0"
       ry="0"
       transform="matrix(-0.71018268,0.70401744,0.70401744,0.71018268,0,0)" />
    <rect
       style="fill:#181818;fill-opacity:1;stroke:none;stroke-width:0.113584;stroke-linecap:round;stroke-linejoin:round;stroke-miterlimit:4;stroke-dasharray:none;stroke-opacity:1;paint-order:markers stroke fill"
       id="rect7126-4-2"
       width="5.0401316"
       height="0.58092254"
       x="276.49994"
       y="78.166595"
       rx="0"
       ry="0"
       transform="rotate(44.750219)" />
    <rect
       style="fill:#181818;fill-opacity:1;stroke:none;stroke-width:0.113584;stroke-linecap:round;stroke-linejoin:round;stroke-miterlimit:4;stroke-dasharray:none;stroke-opacity:1;paint-order:markers stroke fill"
       id="rect7126-1-5-4"
       width="5.0401316"
       height="0.58092254"
       x="73.501274"
       y="279.40302"
       rx="0"
       ry="0"
       transform="matrix(-0.71018268,0.70401744,0.70401744,0.71018268,0,0)" />
    <rect
       style="fill:#181818;fill-opacity:1;stroke:none;stroke-width:0.113584;stroke-linecap:round;stroke-linejoin:round;stroke-miterlimit:4;stroke-dasharray:none;stroke-opacity:1;paint-order:markers stroke fill"
       id="rect7126-4-2-6"
       width="5.0401316"
       height="0.58092254"
       x="133.02936"
       y="74.15728"
       rx="0"
       ry="0"
       transform="rotate(44.750219)" />
    <rect
       style="fill:#181818;fill-opacity:1;stroke:none;stroke-width:0.113584;stroke-linecap:round;stroke-linejoin:round;stroke-miterlimit:4;stroke-dasharray:none;stroke-opacity:1;paint-order:markers stroke fill"
       id="rect7126-1-5-4-3"
       width="5.0401316"
       height="0.58092254"
       x="70.743019"
       y="135.90292"
       rx="0"
       ry="0"
       transform="matrix(-0.71018268,0.70401744,0.70401744,0.71018268,0,0)" />
    <rect
       style="fill:#181818;fill-opacity:1;stroke:none;stroke-width:0.113584;stroke-linecap:round;stroke-linejoin:round;stroke-miterlimit:4;stroke-dasharray:none;stroke-opacity:1;paint-order:markers stroke fill"
       id="rect7126-1-9-9-8-17"
       width="5.0401316"
       height="0.58092254"
       x="261.44269"
       y="20.423983"
       rx="0"
       ry="0"
       transform="rotate(44.750219)" />
    <rect
       style="fill:#181818;fill-opacity:1;stroke:none;stroke-width:0.113584;stroke-linecap:round;stroke-linejoin:round;stroke-miterlimit:4;stroke-dasharray:none;stroke-opacity:1;paint-order:markers stroke fill"
       id="rect7126-1-9-9-4-4-3"
       width="5.0401316"
       height="0.58092254"
       x="259.39008"
       y="22.458773"
       rx="0"
       ry="0"
       transform="rotate(44.750219)" />
    <rect
       style="fill:#181818;fill-opacity:1;stroke:none;stroke-width:0.113584;stroke-linecap:round;stroke-linejoin:round;stroke-miterlimit:4;stroke-dasharray:none;stroke-opacity:1;paint-order:markers stroke fill"
       id="rect7126-1-9-9-3-7-5"
       width="5.0401316"
       height="0.58092254"
       x="257.12573"
       y="24.563143"
       rx="0"
       ry="0"
       transform="rotate(44.750219)" />
    <rect
       style="fill:#181818;fill-opacity:1;stroke:none;stroke-width:0.113584;stroke-linecap:round;stroke-linejoin:round;stroke-miterlimit:4;stroke-dasharray:none;stroke-opacity:1;paint-order:markers stroke fill"
       id="rect7126-1-9-9-8-4"
       width="5.0401316"
       height="0.58092254"
       x="257.15091"
       y="20.427248"
       rx="0"
       ry="0"
       transform="rotate(44.750219)" />
    <rect
       style="fill:#181818;fill-opacity:1;stroke:none;stroke-width:0.113584;stroke-linecap:round;stroke-linejoin:round;stroke-miterlimit:4;stroke-dasharray:none;stroke-opacity:1;paint-order:markers stroke fill"
       id="rect7126-1-9-9-4-4-4"
       width="5.0401316"
       height="0.58092254"
       x="255.0983"
       y="22.462038"
       rx="0"
       ry="0"
       transform="rotate(44.750219)" />
    <rect
       style="fill:#181818;fill-opacity:1;stroke:none;stroke-width:0.113584;stroke-linecap:round;stroke-linejoin:round;stroke-miterlimit:4;stroke-dasharray:none;stroke-opacity:1;paint-order:markers stroke fill"
       id="rect7126-1-9-9-3-7-4"
       width="5.0401316"
       height="0.58092254"
       x="252.83395"
       y="24.566408"
       rx="0"
       ry="0"
       transform="rotate(44.750219)" />
    <rect
       style="fill:#181818;fill-opacity:1;stroke:none;stroke-width:0.113584;stroke-linecap:round;stroke-linejoin:round;stroke-miterlimit:4;stroke-dasharray:none;stroke-opacity:1;paint-order:markers stroke fill"
       id="rect7126-1-9-9-8-1-9"
       width="5.0401316"
       height="0.58092254"
       x="261.41751"
       y="24.559877"
       rx="0"
       ry="0"
       transform="rotate(44.750219)" />
    <rect
       style="fill:#181818;fill-opacity:1;stroke:none;stroke-width:0.113584;stroke-linecap:round;stroke-linejoin:round;stroke-miterlimit:4;stroke-dasharray:none;stroke-opacity:1;paint-order:markers stroke fill"
       id="rect7126-1-9-9-4-4-7-3"
       width="5.0401316"
       height="0.58092254"
       x="259.3649"
       y="26.594667"
       rx="0"
       ry="0"
       transform="rotate(44.750219)" />
    <rect
       style="fill:#181818;fill-opacity:1;stroke:none;stroke-width:0.113584;stroke-linecap:round;stroke-linejoin:round;stroke-miterlimit:4;stroke-dasharray:none;stroke-opacity:1;paint-order:markers stroke fill"
       id="rect7126-1-9-9-3-7-9-1"
       width="5.0401316"
       height="0.58092254"
       x="257.10056"
       y="28.699038"
       rx="0"
       ry="0"
       transform="rotate(44.750219)" />
    <rect
       style="fill:#181818;fill-opacity:1;stroke:none;stroke-width:0.113584;stroke-linecap:round;stroke-linejoin:round;stroke-miterlimit:4;stroke-dasharray:none;stroke-opacity:1;paint-order:markers stroke fill"
       id="rect7126-1-9-9-8-17-5"
       width="5.0401316"
       height="0.58092254"
       x="257.12573"
       y="24.563143"
       rx="0"
       ry="0"
       transform="rotate(44.750219)" />
    <rect
       style="fill:#181818;fill-opacity:1;stroke:none;stroke-width:0.113584;stroke-linecap:round;stroke-linejoin:round;stroke-miterlimit:4;stroke-dasharray:none;stroke-opacity:1;paint-order:markers stroke fill"
       id="rect7126-1-9-9-4-4-3-3"
       width="5.0401316"
       height="0.58092254"
       x="255.0731"
       y="26.597933"
       rx="0"
       ry="0"
       transform="rotate(44.750219)" />
    <rect
       style="fill:#181818;fill-opacity:1;stroke:none;stroke-width:0.113584;stroke-linecap:round;stroke-linejoin:round;stroke-miterlimit:4;stroke-dasharray:none;stroke-opacity:1;paint-order:markers stroke fill"
       id="rect7126-1-9-9-3-7-5-1"
       width="5.0401316"
       height="0.58092254"
       x="252.80876"
       y="28.702303"
       rx="0"
       ry="0"
       transform="rotate(44.750219)" />
    <rect
       style="fill:#181818;fill-opacity:1;stroke:none;stroke-width:0.113584;stroke-linecap:round;stroke-linejoin:round;stroke-miterlimit:4;stroke-dasharray:none;stroke-opacity:1;paint-order:markers stroke fill"
       id="rect7126-1-9-9-8-4-6"
       width="5.0401316"
       height="0.58092254"
       x="252.83395"
       y="24.566408"
       rx="0"
       ry="0"
       transform="rotate(44.750219)" />
    <rect
       style="fill:#181818;fill-opacity:1;stroke:none;stroke-width:0.113584;stroke-linecap:round;stroke-linejoin:round;stroke-miterlimit:4;stroke-dasharray:none;stroke-opacity:1;paint-order:markers stroke fill"
       id="rect7126-1-9-9-4-4-4-4"
       width="5.0401316"
       height="0.58092254"
       x="250.78133"
       y="26.601198"
       rx="0"
       ry="0"
       transform="rotate(44.750219)" />
    <rect
       style="fill:#181818;fill-opacity:1;stroke:none;stroke-width:0.113584;stroke-linecap:round;stroke-linejoin:round;stroke-miterlimit:4;stroke-dasharray:none;stroke-opacity:1;paint-order:markers stroke fill"
       id="rect7126-1-9-9-3-7-4-0"
       width="5.0401316"
       height="0.58092254"
       x="248.51698"
       y="28.705568"
       rx="0"
       ry="0"
       transform="rotate(44.750219)" />
  </g>
</svg>
